<svg width="182" height="27" viewBox="0 0 182 27" fill="none" xmlns="http://www.w3.org/2000/svg">
<path d="M40.5422 26.2414L40.8382 25.2149C41.1896 23.9947 41.0596 22.8686 40.4675 22.0385C39.9141 21.2749 39.0121 20.8266 37.9081 20.774L17.0098 20.5084C16.9442 20.5075 16.8798 20.4907 16.8221 20.4595C16.7644 20.4283 16.7152 20.3836 16.6785 20.3293C16.6418 20.2749 16.6188 20.2125 16.6114 20.1474C16.6041 20.0822 16.6126 20.0162 16.6362 19.955C16.6717 19.8526 16.7366 19.7629 16.8226 19.6969C16.9087 19.631 17.0123 19.5919 17.1204 19.5843L38.2208 19.3076C40.711 19.1942 43.4336 17.1633 44.3826 14.6841L45.5835 11.5409C45.6175 11.4527 45.6345 11.3588 45.6333 11.2642C45.6318 11.2141 45.6263 11.1641 45.6167 11.1148C44.9615 8.19122 43.3689 5.5618 41.0813 3.62693C38.7938 1.69206 35.9366 0.557746 32.9448 0.396706C29.953 0.235665 26.9906 1.05672 24.5085 2.73485C22.0265 4.41299 20.1608 6.85626 19.1956 9.69264C18.171 8.93106 16.9358 8.50525 15.6595 8.47367C14.3833 8.4421 13.1285 8.80629 12.0675 9.51627C11.0065 10.2262 10.1912 11.2472 9.73353 12.439C9.27589 13.6308 9.19832 14.9351 9.51148 16.1727C8.26816 16.2048 7.04585 16.5008 5.92552 17.0409C4.8052 17.5811 3.81242 18.3531 3.01296 19.3059C2.2135 20.2586 1.6256 21.3704 1.2882 22.5675C0.950802 23.7646 0.871605 25.0197 1.05586 26.2497C1.06919 26.3468 1.11711 26.4358 1.19082 26.5004C1.26453 26.5649 1.35907 26.6007 1.45706 26.6011H40.0524C40.162 26.6022 40.269 26.5678 40.3573 26.5029C40.4456 26.438 40.5105 26.3463 40.5422 26.2414Z" fill="#5D6E7F"/>
<path d="M47.5063 11.7787C47.3218 11.7787 47.1281 11.7842 46.9252 11.7953C46.8947 11.7961 46.8647 11.8027 46.8367 11.8147C46.7861 11.8314 46.7405 11.8604 46.7038 11.899C46.6671 11.9376 46.6405 11.9847 46.6264 12.036L45.7963 14.8748C45.4422 16.095 45.5722 17.2212 46.1671 18.0512C46.4677 18.444 46.8546 18.7624 47.2979 18.9816C47.7413 19.2009 48.2291 19.3152 48.7237 19.3157L53.1812 19.5924C53.2435 19.5943 53.3045 19.6108 53.3593 19.6406C53.4141 19.6704 53.4611 19.7127 53.4966 19.7639C53.5342 19.8187 53.5581 19.8818 53.5663 19.9477C53.5745 20.0137 53.5667 20.0807 53.5436 20.143C53.5081 20.2454 53.4433 20.3352 53.3572 20.4011C53.2711 20.467 53.1676 20.5062 53.0594 20.5138L48.4304 20.7905C45.9153 20.9067 43.2065 22.9348 42.2575 25.4112L41.9227 26.2855C41.9087 26.3221 41.9035 26.3615 41.9076 26.4005C41.9117 26.4394 41.9249 26.4769 41.9462 26.5098C41.9675 26.5427 41.9963 26.5701 42.0302 26.5898C42.0641 26.6095 42.1021 26.6209 42.1413 26.6231H58.0869C58.1841 26.6254 58.2792 26.5946 58.3566 26.5358C58.434 26.477 58.4892 26.3936 58.513 26.2993C58.9883 24.6006 59.0643 22.815 58.7351 21.082C58.4058 19.349 57.6802 17.7156 56.615 16.3096C55.5497 14.9036 54.1737 13.763 52.5945 12.977C51.0154 12.191 49.2758 11.7809 47.5118 11.7787H47.5063Z" fill="#5D6E7F"/>
<path d="M76.5059 16.9004H79.1427V24.1109H83.7551V26.4213H76.5059V16.9004Z" fill="#5D6E7F"/>
<path d="M86.4883 21.6981V21.6732C86.4883 18.9395 88.7018 16.7205 91.6292 16.7205C94.5565 16.7205 96.7424 18.9118 96.7424 21.6455V21.6732C96.7424 24.4069 94.5289 26.6232 91.6015 26.6232C88.6741 26.6232 86.4883 24.4235 86.4883 21.6981ZM94.0502 21.6981V21.6732C94.0502 20.2898 93.0569 19.1028 91.6015 19.1028C90.1461 19.1028 89.1943 20.2704 89.1943 21.6455V21.6732C89.1943 23.0566 90.1876 24.2436 91.6292 24.2436C93.0707 24.2436 94.0502 23.0732 94.0502 21.6981Z" fill="#5D6E7F"/>
<path d="M99.9717 22.2516V16.9004H102.653V22.1907C102.653 23.5741 103.345 24.2188 104.407 24.2188C105.469 24.2188 106.161 23.5935 106.161 22.2599V16.9004H108.84V22.1769C108.84 25.2509 107.085 26.6039 104.379 26.6039C101.673 26.6039 99.9717 25.2204 99.9717 22.2516Z" fill="#5D6E7F"/>
<path d="M112.879 16.9004H116.551C119.951 16.9004 121.924 18.8594 121.924 21.6041V21.6318C121.924 24.3793 119.923 26.4185 116.498 26.4185H112.879V16.9004ZM116.592 24.0943C118.169 24.0943 119.218 23.2227 119.218 21.6843V21.6594C119.218 20.1349 118.169 19.2495 116.592 19.2495H115.51V24.0832L116.592 24.0943Z" fill="#5D6E7F"/>
<path d="M125.76 16.9004H133.374V19.2135H128.399V20.8321H132.901V23.0208H128.399V26.4213H125.76V16.9004Z" fill="#5D6E7F"/>
<path d="M137.049 16.9004H139.686V24.1109H144.298V26.4213H137.049V16.9004Z" fill="#5D6E7F"/>
<path d="M151.205 16.834H153.747L157.79 26.4213H154.962L154.268 24.7224H150.593L149.915 26.4213H147.148L151.205 16.834ZM153.515 22.6666L152.455 19.9606L151.371 22.6666H153.515Z" fill="#5D6E7F"/>
<path d="M161.188 16.9004H165.689C167.147 16.9004 168.152 17.2822 168.791 17.9352C169.077 18.2256 169.3 18.5723 169.445 18.9533C169.591 19.3344 169.655 19.7414 169.635 20.1487V20.1764C169.656 20.8078 169.479 21.43 169.127 21.9549C168.776 22.4797 168.268 22.8807 167.676 23.101L169.947 26.4213H166.904L164.984 23.5382H163.827V26.4213H161.188V16.9004ZM165.567 21.4713C166.467 21.4713 166.984 21.0341 166.984 20.3424V20.3147C166.984 19.5649 166.431 19.1858 165.554 19.1858H163.827V21.4713H165.567Z" fill="#5D6E7F"/>
<path d="M173.442 16.9004H181.101V19.1443H176.054V20.5859H180.625V22.6666H176.054V24.1773H181.168V26.4213H173.442V16.9004Z" fill="#5D6E7F"/>
<path d="M70.7294 22.8051C70.549 23.2328 70.2453 23.5971 69.8569 23.8514C69.4686 24.1057 69.0133 24.2384 68.5491 24.2328C67.1048 24.2328 66.1142 23.0347 66.1142 21.6623V21.6347C66.1142 20.2512 67.0799 19.0891 68.5214 19.0891C69.0157 19.0862 69.4988 19.2365 69.9041 19.5194C70.3095 19.8024 70.6171 20.204 70.7847 20.669H73.5516C73.12 18.4029 71.1306 16.7179 68.5491 16.7179C65.6107 16.7179 63.4082 18.9314 63.4082 21.6706V21.6983C63.4082 24.432 65.583 26.6234 68.5214 26.6234C71.0338 26.6234 72.9983 24.9964 73.5157 22.8161L70.7294 22.8051Z" fill="#5D6E7F"/>
</svg>
