<svg width="106" height="27" viewBox="0 0 106 27" fill="none" xmlns="http://www.w3.org/2000/svg">
<g clip-path="url(#clip0_1637_1615)">
<path fill-rule="evenodd" clip-rule="evenodd" d="M45.3054 0.92334C43.0283 0.92334 41.5456 1.66473 40.2217 4.15366L34.1847 15.5392V5.42461C34.1847 2.40611 32.7548 0.92334 30.107 0.92334C27.4592 0.92334 26.3471 1.82359 25.0232 4.36549L19.304 15.5392V5.53052C19.304 2.3002 17.9801 0.92334 14.7497 0.92334H8.18318C5.69424 0.92334 4.31738 2.08837 4.31738 4.20662C4.31738 6.32487 5.64129 7.59581 8.07727 7.59581H10.778V20.3582C10.778 23.9593 13.214 26.0775 16.7091 26.0775C20.2042 26.0775 21.7929 24.7006 23.5405 21.4703L27.3533 14.3212V20.3582C27.3533 23.9063 29.6834 26.0775 33.2314 26.0775C36.7795 26.0775 38.1034 24.8595 40.1157 21.4703L48.9065 6.6426C50.8129 3.41228 49.489 0.92334 45.2525 0.92334C45.2525 0.92334 45.2525 0.92334 45.3054 0.92334Z" fill="#5D6E7F"/>
<path fill-rule="evenodd" clip-rule="evenodd" d="M61.8284 0.92334C54.6264 0.92334 49.1719 6.27191 49.1719 13.5269C49.1719 20.7819 54.6793 26.0775 61.8284 26.0775C68.9775 26.0775 74.432 20.7289 74.4849 13.5269C74.4849 6.27191 68.9775 0.92334 61.8284 0.92334ZM61.8284 18.3459C59.1276 18.3459 57.2742 16.3336 57.2742 13.5269C57.2742 10.7202 59.1276 8.65494 61.8284 8.65494C64.5292 8.65494 66.3826 10.7202 66.3826 13.5269C66.3826 16.3336 64.5821 18.3459 61.8284 18.3459Z" fill="#5D6E7F"/>
<path fill-rule="evenodd" clip-rule="evenodd" d="M88.8889 0.92334C81.7399 0.92334 76.2324 6.27191 76.2324 13.5269C76.2324 20.7819 81.7399 26.0775 88.8889 26.0775C96.038 26.0775 101.545 20.7289 101.545 13.5269C101.545 6.32487 96.038 0.92334 88.8889 0.92334ZM88.8889 18.3459C86.1352 18.3459 84.3877 16.3336 84.3877 13.5269C84.3877 10.7202 86.1882 8.65494 88.8889 8.65494C91.5897 8.65494 93.4432 10.7202 93.4432 13.5269C93.4432 16.3336 91.6427 18.3459 88.8889 18.3459Z" fill="#5D6E7F"/>
</g>
<defs>
<clipPath id="clip0_1637_1615">
<rect width="97.2275" height="25.1542" fill="white" transform="translate(4.31836 0.922974)"/>
</clipPath>
</defs>
</svg>
