<svg width="166" height="41" viewBox="0 0 166 41" fill="none" xmlns="http://www.w3.org/2000/svg">
<g clip-path="url(#clip0_1637_1604)">
<path d="M94.1393 16.1655H87.4498V16.875C89.5424 16.875 89.8787 17.3234 89.8787 19.9766V24.76C89.8787 27.4132 89.5424 27.8993 87.4498 27.8993C85.8435 27.6751 84.759 26.8159 83.2647 25.1708L81.5462 23.3025C83.862 22.8917 85.0953 21.4341 85.0953 19.7901C85.0953 17.7342 83.3391 16.1655 80.051 16.1655H73.4736V16.875C75.5662 16.875 75.9025 17.3234 75.9025 19.9766V24.76C75.9025 27.4132 75.5662 27.8993 73.4736 27.8993V28.6088H80.9102V27.8993C78.8176 27.8993 78.4813 27.4132 78.4813 24.76V23.4146H79.1163L83.2647 28.6088H94.1393C99.4833 28.6088 101.8 25.7691 101.8 22.3678C101.8 18.9665 99.4833 16.1655 94.1393 16.1655ZM78.4813 22.2557V17.2857H80.0133C81.695 17.2857 82.4422 18.4446 82.4422 19.7901C82.4422 21.0978 81.695 22.2557 80.0133 22.2557H78.4813ZM94.2514 27.4469H93.9924C92.647 27.4469 92.4605 27.1105 92.4605 25.391V17.2857H94.2544C98.1408 17.2857 98.8512 20.1264 98.8512 22.3311C98.8483 24.6112 98.1379 27.4469 94.2514 27.4469Z" fill="#5D6E7F"/>
<path d="M52.6582 23.6389L55.2379 16.0148C55.985 13.8101 55.6487 13.1751 53.2535 13.1751V12.428H60.2783V13.1751C57.9248 13.1751 57.3642 13.7357 56.4295 16.4643L52.172 29.2449H51.6868L47.8748 17.5478L43.9843 29.2449H43.4981L39.3507 16.4643C38.4577 13.7357 37.8555 13.1751 35.6875 13.1751V12.428H43.9843V13.1751C41.7786 13.1751 41.1813 13.698 41.9662 16.0148L44.4695 23.6389L48.2399 12.427H48.9503L52.6582 23.6389Z" fill="#5D6E7F"/>
<path d="M65.3639 29.0951C61.2532 29.0951 57.8896 26.0678 57.8896 22.3679C57.8896 18.7067 61.2532 15.6785 65.3639 15.6785C69.4746 15.6785 72.8382 18.7067 72.8382 22.3679C72.8382 26.0678 69.4746 29.0951 65.3639 29.0951ZM65.3639 16.8384C61.9259 16.8384 60.7303 19.939 60.7303 22.3679C60.7303 24.8355 61.9259 27.8994 65.3639 27.8994C68.8366 27.8994 70.0352 24.8355 70.0352 22.3679C70.0352 19.939 68.8396 16.8384 65.3639 16.8384Z" fill="#5D6E7F"/>
<path d="M111.028 27.8615V28.6086H102.472V27.8615C104.975 27.8615 105.423 27.2265 105.423 23.4888V17.5098C105.423 13.7732 104.975 13.1749 102.472 13.1749V12.4277H110.211C114.06 12.4277 116.19 14.4121 116.19 17.0613C116.19 19.6411 114.06 21.6582 110.211 21.6582H108.081V23.4888C108.081 27.2265 108.525 27.8615 111.028 27.8615ZM110.207 13.7722H108.081V20.2741H110.211C112.303 20.2741 113.275 18.8175 113.275 17.0603C113.271 15.2684 112.299 13.7732 110.207 13.7732V13.7722Z" fill="#5D6E7F"/>
<path d="M141.859 25.0964L141.672 25.7691C141.336 27.0024 140.924 27.4559 138.271 27.4559H137.747C135.804 27.4559 135.465 27.0074 135.465 24.3542V22.6308C138.38 22.6308 138.605 22.8917 138.605 24.8355H139.315V19.2662H138.605C138.605 21.2099 138.38 21.4709 135.465 21.4709V17.2858H137.521C140.174 17.2858 140.585 17.7342 140.921 18.9725L141.109 19.6829H141.704L141.443 16.1705H130.461V16.88C132.553 16.88 132.889 17.3284 132.889 19.9816V24.765C132.889 27.1929 132.604 27.8041 130.954 27.8914C129.386 27.6513 128.309 26.8 126.836 25.1758L125.117 23.3075C127.434 22.8967 128.668 21.4391 128.668 19.7951C128.668 17.7392 126.911 16.1705 123.622 16.1705H117.046V16.88C119.137 16.88 119.474 17.3284 119.474 19.9816V24.765C119.474 27.4182 119.137 27.9043 117.046 27.9043V28.6138H124.487V27.9043C122.395 27.9043 122.059 27.4182 122.059 24.765V23.4146H122.694L126.841 28.6088H142.2L142.425 25.0964H141.859ZM122.054 22.2557V17.2858H123.586C125.266 17.2858 126.014 18.4447 126.014 19.7901C126.014 21.0978 125.266 22.2557 123.586 22.2557H122.054Z" fill="#5D6E7F"/>
<path d="M149.446 29.095C147.95 29.095 146.642 28.3102 146.082 27.824C145.774 28.1872 145.569 28.6259 145.487 29.095H144.776V23.9355H145.524C145.822 26.4011 147.542 27.8587 149.747 27.8587C150.938 27.8587 151.914 27.186 151.914 26.0648C151.914 25.0934 151.055 24.3463 149.523 23.6359L147.393 22.6278C145.898 21.9164 144.776 20.6841 144.776 19.039C144.776 17.2461 146.463 15.7141 148.776 15.7141C150.009 15.7141 151.058 16.1626 151.69 16.6855C151.878 16.5357 152.064 16.1239 152.176 15.6754H152.886V20.0858H152.102C151.84 18.3296 150.869 16.872 148.888 16.872C147.841 16.872 146.869 17.4673 146.869 18.404C146.869 19.3753 147.654 19.8992 149.449 20.7208L151.504 21.7298C153.297 22.5891 154.007 23.9722 154.007 25.0934C154.004 27.4469 151.949 29.095 149.446 29.095Z" fill="#5D6E7F"/>
<path d="M160.745 29.095C159.251 29.095 157.943 28.3102 157.382 27.824C157.074 28.1875 156.869 28.6261 156.787 29.095H156.076V23.9355H156.823C157.121 26.4011 158.841 27.8587 161.046 27.8587C162.237 27.8587 163.214 27.186 163.214 26.0648C163.214 25.0934 162.354 24.3463 160.822 23.6359L158.693 22.6278C157.197 21.9164 156.076 20.6841 156.076 19.039C156.076 17.2461 157.763 15.7141 160.075 15.7141C161.308 15.7141 162.357 16.1626 162.99 16.6855C163.176 16.5357 163.363 16.1239 163.475 15.6754H164.185V20.0858H163.401C163.139 18.3296 162.167 16.872 160.187 16.872C159.141 16.872 158.169 17.4673 158.169 18.404C158.169 19.3753 158.954 19.8992 160.748 20.7208L162.803 21.7298C164.598 22.5891 165.308 23.9722 165.308 25.0934C165.305 27.4469 163.248 29.095 160.745 29.095Z" fill="#5D6E7F"/>
<path d="M17.1948 4.69193C20.3444 4.68674 23.4231 5.62689 26.0324 7.39073C27.7152 8.52752 29.1651 9.9757 30.3039 11.6572C32.0685 14.2667 33.0116 17.3447 33.0116 20.4948C33.0116 23.6449 32.0685 26.7229 30.3039 29.3323C29.1663 31.0162 27.7163 32.4663 26.0324 33.6038C23.4226 35.3674 20.3447 36.3099 17.1948 36.3099C14.045 36.3099 10.9671 35.3674 8.35728 33.6038C5.81534 31.8898 3.82498 29.4755 2.6273 26.6534C1.60249 24.231 1.19896 21.5909 1.45332 18.973C1.70768 16.355 2.61189 13.842 4.08385 11.6622C5.80018 9.11936 8.21779 7.1295 11.0432 5.93417C12.9892 5.11034 15.0816 4.68782 17.1948 4.69193ZM17.1948 3.68286C13.8688 3.68247 10.6173 4.66838 7.85156 6.51591C5.08582 8.36345 2.93004 10.9896 1.65685 14.0624C0.38366 17.1351 0.0502308 20.5164 0.698729 23.7786C1.34723 27.0408 2.94853 30.0375 5.30013 32.3897C7.65174 34.7418 10.648 36.3438 13.9101 36.9931C17.1722 37.6424 20.5535 37.3097 23.6266 36.0373C26.6996 34.7648 29.3263 32.6096 31.1745 29.8443C33.0227 27.079 34.0093 23.8278 34.0097 20.5017C34.01 16.0417 32.2386 11.7642 29.0853 8.6101C25.932 5.45601 21.6549 3.68365 17.1948 3.68286Z" fill="#5D6E7F"/>
<path d="M3.17871 20.5016C3.17836 23.1334 3.91904 25.7121 5.31599 27.9425C6.71293 30.173 8.70968 31.965 11.0777 33.1135L4.39516 14.7964C3.59221 16.5912 3.17767 18.5354 3.17871 20.5016ZM26.6533 19.7941C26.6533 18.0617 26.0312 16.8632 25.4984 15.9245C24.7879 14.7696 24.1222 13.7933 24.1222 12.6384C24.1222 11.3485 25.0985 10.1509 26.4747 10.1509C26.5372 10.1509 26.5957 10.1578 26.6563 10.1618C25.1599 8.79201 23.3839 7.76349 21.4511 7.14735C19.5183 6.5312 17.4748 6.34212 15.4617 6.59319C13.4486 6.84425 11.5141 7.52947 9.79186 8.60148C8.06958 9.67348 6.60065 11.1067 5.48658 12.8021C5.81599 12.812 6.12556 12.8189 6.38849 12.8189C7.85398 12.8189 10.1241 12.6413 10.1241 12.6413C10.8792 12.5967 10.9675 13.707 10.2134 13.7963C10.2134 13.7963 9.45341 13.8846 8.60905 13.9292L13.713 29.1099L16.7799 19.9122L14.597 13.9302C13.8419 13.8856 13.1266 13.7973 13.1266 13.7973C12.3715 13.7526 12.4598 12.5977 13.2159 12.6423C13.2159 12.6423 15.5297 12.8199 16.9069 12.8199C18.3723 12.8199 20.6415 12.6423 20.6415 12.6423C21.3976 12.5977 21.4859 13.708 20.7308 13.7973C20.7308 13.7973 19.9708 13.8856 19.1274 13.9302L24.1877 28.9939L25.6333 24.4129C26.2772 22.4106 26.6533 20.9917 26.6533 19.7922V19.7941ZM17.4387 21.727L13.2337 33.943C16.057 34.775 19.0706 34.6969 21.847 33.7197C21.808 33.6567 21.7748 33.5903 21.7478 33.5213L17.4387 21.727ZM29.491 13.7784C29.5543 14.256 29.5858 14.7373 29.5852 15.2191C29.5852 16.6409 29.3183 18.2394 28.5186 20.2386L24.2392 32.6124C27.3962 30.7759 29.7117 27.7797 30.6926 24.2616C31.6735 20.7435 31.2423 16.9814 29.491 13.7764V13.7784Z" fill="#5D6E7F"/>
</g>
<defs>
<clipPath id="clip0_1637_1604">
<rect width="164.928" height="33.6338" fill="white" transform="translate(0.375 3.68311)"/>
</clipPath>
</defs>
</svg>
